<svg xmlns="http://www.w3.org/2000/svg" viewBox="0 0 320 96"><defs><linearGradient id="p" x1="17" y1="9" x2="301" y2="84"><stop stop-color="#F0E9DF"/><stop offset="1" stop-color="#D5C7B8"/></linearGradient><filter id="s" x="0" y="0" width="320" height="96"><feDropShadow dy="4" stdDeviation="4" flood-color="#181511" flood-opacity=".3"/></filter></defs><g filter="url(#s)"><path d="M9 11C62 7 112 12 163 8C211 4 260 11 311 9L308 80C260 77 216 83 165 79C111 75 60 82 11 77L9 11Z" fill="url(#p)"/><path d="M35 20C101 39 194 57 284 76M286 18C210 37 123 55 37 73" stroke="#A33D2E" stroke-opacity=".62" stroke-width="3.2" stroke-linecap="round"/><path d="M10 63C66 69 117 63 169 68C222 72 267 65 309 62" stroke="#8E7B67" stroke-opacity=".11" stroke-width="6"/></g></svg>
